<svg width="381" height="333" viewBox="0 0 381 333" fill="none" xmlns="http://www.w3.org/2000/svg">
<path fill-rule="evenodd" class="fill" clip-rule="evenodd" d="M169.682 109.235H210.565C234.869 109.235 299.302 177.036 314.186 190.596L365.243 199.636C375.606 201.52 382.576 211.502 380.692 221.86L380.316 223.743C378.432 234.102 368.446 241.07 358.084 239.187L300.621 229.017C295.723 228.075 291.766 225.627 288.94 221.86C288.564 221.483 287.998 221.107 287.622 220.73L245.608 182.874V250.11L324.548 236.927C340.374 234.29 355.446 245.025 358.084 260.846L358.649 263.859C361.287 279.679 350.548 294.746 334.722 297.383L287.056 305.293C287.056 305.481 287.056 305.481 287.056 305.67L286.491 308.683C283.853 324.503 268.781 335.238 252.955 332.602L188.145 321.867L123.334 332.602C107.509 335.238 92.4364 324.503 89.7988 308.683L89.2336 305.67C89.2336 305.481 89.2336 305.481 89.2336 305.293L41.5677 297.383C25.7419 294.746 15.003 279.679 17.6406 263.859L18.2058 260.846C20.8435 245.025 35.9157 234.29 51.7415 236.927L134.639 250.675V183.628L93.3785 220.918C93.0017 221.295 92.4364 221.672 92.0596 222.048C89.2336 225.627 85.0887 228.263 80.3787 229.205L22.9159 239.375C12.5537 241.259 2.5684 234.29 0.684373 223.932L0.307567 222.048C-1.57646 211.69 5.39444 201.708 15.7566 199.825L66.8137 190.785C81.1323 177.978 145.943 109.423 169.682 109.423V109.235ZM188.71 0C216.217 0 238.448 22.2237 238.448 49.7208C238.448 77.2178 216.217 99.4415 188.71 99.4415C161.203 99.4415 138.972 77.2178 138.972 49.7208C138.972 22.2237 161.203 0 188.71 0Z" fill="black"/>
</svg>
